<svg xmlns="http://www.w3.org/2000/svg" viewBox="0 0 256 256" enable-background="new 0 0 256 256"><style type="text/css">.st0{fill:#F6A500;}</style><path class="st0" d="M157.1 207.7c-.6 0-1.1-.3-1.4-.6l-50.1-32.9-44.8-10.8-.8-.3-40.6-24.9c-2.2-1.4-2.2-3.6 0-5l40.6-24.8.8-.3 44.8-10.8 50.1-32.9c.3-.3.8-.6 1.4-.6h60.3c3 0 4.1 1.9 2.2 4.4l-23.8 31 11.1-.6c1.7 0 3 1.1 3 2.8v6.6c5 1.4 16.6 6.6 27.9 26.3.3.8.3 1.9 0 2.8-11.3 19.4-23 24.6-27.9 26.3v6.9c0 1.7-1.4 2.8-3 2.8l-11.3-.8 24.1 31c1.9 2.5.8 4.4-2.2 4.4h-60.4z"/><polygon class="st0" points="58.7,115.9 26.3,135.8 58.7,155.7"/></svg>